<?xml version="1.0" encoding="UTF-8" standalone="no"?>
<svg
   width="1434"
   height="1794"
   viewBox="0 0 1434 1794"
   version="1.1"
   id="svg2"
   sodipodi:docname="muller-brockman-no-text.svg"
   inkscape:version="1.3.2 (091e20ef0f, 2023-11-25, custom)"
   xmlns:inkscape="http://www.inkscape.org/namespaces/inkscape"
   xmlns:sodipodi="http://sodipodi.sourceforge.net/DTD/sodipodi-0.dtd"
   xmlns="http://www.w3.org/2000/svg"
   xmlns:svg="http://www.w3.org/2000/svg">
  <defs
     id="defs2" />
  <sodipodi:namedview
     id="namedview2"
     pagecolor="#ffffff"
     bordercolor="#000000"
     borderopacity="0.25"
     inkscape:showpageshadow="2"
     inkscape:pageopacity="0.0"
     inkscape:pagecheckerboard="0"
     inkscape:deskcolor="#d1d1d1"
     inkscape:zoom="1.1374628"
     inkscape:cx="852.33558"
     inkscape:cy="1053.6609"
     inkscape:window-width="1920"
     inkscape:window-height="1177"
     inkscape:window-x="0"
     inkscape:window-y="0"
     inkscape:window-maximized="1"
     inkscape:current-layer="svg2" />
  <path
     d="m 0,897 v 897 l 138.25,-0.01 H 276.5 l 33.2,-55.745 c 18.259,-30.66 37.384,-62.821 42.5,-71.47 5.115,-8.649 9.659,-15.737 10.097,-15.75 1.218,-0.038 31.701,18.379 31.702,19.153 10e-4,0.623 -20.842,35.805 -58.145,98.148 -8.169,13.654 -14.854,25.017 -14.854,25.251 0,0.233 250.538,0.312 556.75,0.174 l 556.75,-0.251 0.251,-896.75 0.25,-896.75 h -138.37 -138.37 l -38.283,64.25 c -21.055,35.338 -49.52,83.15 -63.255,106.25 -13.734,23.1 -25.124,42.17 -25.309,42.379 -0.186,0.208 -2.493,-0.972 -5.126,-2.623 -2.633,-1.651 -17.838,-10.772 -33.788,-20.269 -15.95,-9.496 -29.134,-17.375 -29.297,-17.508 -0.164,-0.132 8.115,-14.357 18.398,-31.61 10.282,-17.253 22.152,-37.219 26.376,-44.369 4.225,-7.15 11.986,-20.2 17.246,-29 C 1055.663,16.578 1065,0.837 1065,0.442 1065,0.199 1047.943,0 1027.095,0 h -37.904 l -11.733,19.75 c -6.453,10.863 -18.576,31.225 -26.941,45.25 -18.257,30.611 -34.365,57.645 -70.01,117.5 -70.2,117.876 -82.68,138.498 -83.801,138.468 -1.348,-0.035 -4.706,-2.369 -4.706,-3.27 0,-0.32 3.989,-7.245 8.864,-15.39 4.875,-8.144 20.239,-33.933 34.141,-57.308 13.903,-23.375 27.186,-45.65 29.519,-49.5 2.334,-3.85 16.288,-27.25 31.01,-52 C 939.451,69.667 978.228,4.651 979.778,2.25 L 981.23,0 H 490.615 0 v 897 m 0.498,0.5 c 0,493.35 0.113,695.025 0.252,448.167 0.139,-246.857 0.139,-650.507 0,-897 C 0.611,202.175 0.498,404.15 0.498,897.5 M 1229.397,117.75 c -61.547,103.258 -83.662,140.384 -102.903,172.75 -11.443,19.25 -24.72,41.525 -29.504,49.5 -9.094,15.16 -53.838,90.235 -79.854,133.988 l -15.156,25.488 2.26,1.738 c 3.777,2.905 -0.647,9.472 42.25,-62.714 11.439,-19.25 23.362,-39.275 26.494,-44.5 10.432,-17.403 52.276,-87.625 81.039,-136 10.628,-17.875 38.62,-64.88 62.203,-104.456 l 42.879,-71.956 -2.303,-1.772 c -1.266,-0.974 -2.619,-1.782 -3.007,-1.794 -0.388,-0.012 -11.367,17.865 -24.398,39.728 M 46.39,164.528 l -1.699,2.592 1.405,1.278 c 0.772,0.703 7.929,5.106 15.904,9.785 48.715,28.578 144.623,84.865 162,95.076 27.991,16.448 58.048,34.092 106,62.224 22.275,13.068 63.9,37.513 92.5,54.322 78.712,46.26 90.632,53.195 91.438,53.195 1.191,0 3.235,-5.233 2.36,-6.04 -0.869,-0.801 -27.706,-16.602 -146.798,-86.428 -42.9,-25.154 -81.6,-47.87 -86,-50.482 C 279.1,297.439 253.225,282.237 226,266.268 163.226,229.448 49.723,162.884 48.794,162.346 c -0.388,-0.226 -1.47,0.757 -2.404,2.182 m 444.41,74.011 -1.246,2.734 1.973,1.451 c 1.085,0.797 31.898,19 68.473,40.451 120.612,70.737 177.279,103.991 194,113.847 17.859,10.527 79.584,46.729 95,55.719 5.225,3.046 11.525,6.794 14,8.327 2.475,1.533 7.2,4.327 10.5,6.208 9.108,5.191 57.953,33.851 58.333,34.227 0.183,0.181 -4.654,8.648 -10.75,18.814 -13.215,22.04 -12.984,19.034 -1.961,25.535 l 9.074,5.352 0.819,-0.852 c 0.45,-0.469 5.732,-9.056 11.738,-19.083 l 10.919,-18.23 10.414,6.109 c 5.728,3.36 17.839,10.5 26.914,15.867 37.464,22.156 35.476,21.228 37.232,17.375 l 1.189,-2.609 -1.56,-1.141 c -0.858,-0.627 -16.941,-10.14 -35.74,-21.14 l -34.18,-20 0.387,-1.563 c 0.213,-0.859 11.772,-20.659 25.688,-44 13.915,-23.34 31.466,-52.787 39.002,-65.437 7.535,-12.65 22.286,-37.4 32.78,-55 10.493,-17.6 19.358,-32.732 19.7,-33.627 l 0.622,-1.628 -8.81,-5.26 c -4.846,-2.894 -9.078,-5.407 -9.405,-5.586 -0.63,-0.345 -3.359,4.127 -33.937,55.601 -10.618,17.875 -23.884,40.15 -29.479,49.5 -5.595,9.35 -20.2,33.875 -32.455,54.5 -12.256,20.625 -22.857,38.114 -23.559,38.865 l -1.276,1.365 -41.35,-24.267 C 871.107,457.617 835.625,436.796 815,424.695 c -20.625,-12.102 -44.925,-26.374 -54,-31.717 -9.075,-5.343 -24.375,-14.334 -34,-19.981 -9.625,-5.646 -22.675,-13.303 -29,-17.015 -6.325,-3.712 -36.25,-21.264 -66.5,-39.005 -30.25,-17.741 -73.233,-42.967 -95.517,-56.058 -22.285,-13.092 -41.287,-24.098 -42.227,-24.459 l -1.71,-0.656 -1.246,2.735 m 10.403,108.775 c -0.773,0.98 -11.834,19.802 -24.578,41.824 l -2.684,4.638 4.78,2.757 c 8.365,4.826 68.066,39.803 120.779,70.762 28.05,16.473 56.738,33.316 63.752,37.427 7.014,4.112 12.995,7.869 13.292,8.349 0.622,1.007 -49.899,86.214 -51.419,86.721 -0.555,0.185 -24.548,-13.493 -53.317,-30.396 -53.007,-31.142 -99.407,-58.39 -143.692,-84.382 l -24.383,-14.311 -1.844,2.399 c -2.605,3.387 -2.698,3.256 5.861,8.193 4.262,2.459 32.95,19.279 63.75,37.377 30.8,18.098 77.038,45.253 102.75,60.346 25.712,15.092 46.75,27.811 46.75,28.264 0,0.749 -25.861,44.419 -65.566,110.718 l -15.272,25.5 2.03,1.75 c 3.393,2.926 3.991,2.306 14.004,-14.5 5.325,-8.937 19.193,-32.225 30.818,-51.75 11.625,-19.525 25.49,-42.809 30.811,-51.743 l 9.675,-16.243 1.47,0.546 c 3.624,1.346 53.272,30.906 53.675,31.958 0.249,0.648 -3.551,7.884 -8.443,16.08 -4.893,8.196 -20.958,35.152 -35.7,59.902 -14.743,24.75 -33.648,56.475 -42.012,70.5 -8.363,14.025 -26.585,44.625 -40.493,68 -13.907,23.375 -32.803,55.1 -41.99,70.5 -9.188,15.4 -28.085,47.125 -41.993,70.5 -13.909,23.375 -32.815,55.1 -42.014,70.5 -9.199,15.4 -28.108,47.125 -42.02,70.5 -59.721,100.342 -82.203,138.088 -97.253,163.281 -8.799,14.73 -15.825,26.928 -15.613,27.108 1.043,0.883 64.779,38.633 66.053,39.122 l 1.474,0.565 4.324,-7.288 c 2.378,-4.008 18.147,-30.463 35.04,-58.788 16.894,-28.325 51.091,-85.7 75.994,-127.5 24.902,-41.8 51.446,-86.35 58.985,-99 7.539,-12.65 25.092,-42.125 39.007,-65.5 13.915,-23.375 32.822,-55.1 42.016,-70.5 9.194,-15.4 35.064,-58.825 57.488,-96.5 22.425,-37.675 48.294,-81.1 57.488,-96.5 9.194,-15.4 31.694,-53.2 50.001,-84 18.307,-30.8 33.848,-56.607 34.536,-57.349 l 1.25,-1.35 49.865,29.231 c 27.426,16.077 50.39,29.646 51.032,30.153 l 1.166,0.921 -9.722,16.197 c -5.347,8.908 -14.422,24.173 -20.166,33.921 -5.745,9.748 -10.803,17.736 -11.24,17.75 -0.437,0.014 -12.322,-6.726 -26.412,-14.979 -14.089,-8.253 -25.68,-14.89 -25.757,-14.75 -0.078,0.14 -0.908,1.48 -1.844,2.978 l -1.703,2.724 2.255,1.415 c 3.536,2.219 41.156,24.269 44.373,26.007 1.586,0.857 3.508,1.977 4.273,2.49 l 1.389,0.932 -19.285,32.354 c -10.606,17.795 -28.144,47.205 -38.973,65.355 -10.828,18.15 -29.042,48.75 -40.474,68 -11.433,19.25 -22.693,38.15 -25.023,42 -5.604,9.259 -30.252,50.637 -55.994,94 -11.428,19.25 -23.365,39.275 -26.528,44.5 -3.162,5.225 -17.126,28.625 -31.031,52 -13.904,23.375 -32.12,53.975 -40.478,68 -8.359,14.025 -26.569,44.625 -40.468,68 -13.899,23.375 -27.857,46.775 -31.018,52 -3.161,5.225 -17.118,28.625 -31.016,52 -13.899,23.375 -37.067,62.3 -51.487,86.5 -14.419,24.2 -27.294,45.934 -28.61,48.298 l -2.394,4.297 1.941,1.453 c 3.288,2.46 3.991,1.814 11.224,-10.298 3.859,-6.462 18.274,-30.65 32.033,-53.75 13.759,-23.1 46.069,-77.325 71.801,-120.5 25.732,-43.175 58.04,-97.4 71.795,-120.5 13.756,-23.1 38.827,-65.175 55.712,-93.5 56.055,-94.029 86.327,-144.863 124.463,-209 20.767,-34.925 40.349,-67.775 43.517,-73 3.167,-5.225 17.1,-28.548 30.962,-51.828 l 25.203,-42.328 1.674,0.641 c 2.296,0.88 24.175,13.72 24.175,14.188 0,0.207 -1.743,3.177 -3.874,6.602 -2.131,3.424 -15.124,25.125 -28.874,48.225 -13.75,23.1 -46.583,78.225 -72.963,122.5 -26.379,44.275 -56.661,95.125 -67.292,113 -10.632,17.875 -23.914,40.15 -29.516,49.5 -8.991,15.006 -35.769,59.981 -64.305,108 -5.229,8.8 -17.696,29.725 -27.703,46.5 -53.197,89.171 -61.54,103.258 -61.269,103.442 3.964,2.689 36.015,21.644 36.188,21.402 0.136,-0.189 1.155,-1.919 2.265,-3.844 1.11,-1.925 14.758,-24.875 30.329,-51 15.57,-26.125 41.581,-69.775 57.8,-97 16.22,-27.225 38.358,-64.35 49.196,-82.5 10.838,-18.15 29.74,-49.875 42.004,-70.5 12.263,-20.625 29.82,-50.1 39.015,-65.5 18.614,-31.176 58.873,-98.761 99.477,-167 31.652,-53.193 35.663,-59.91 35.996,-60.28 0.139,-0.154 14.152,7.887 31.139,17.87 16.988,9.982 34.937,20.526 39.887,23.43 4.95,2.905 38.7,22.708 75,44.008 36.3,21.299 82.875,48.623 103.5,60.719 34.614,20.299 50.357,29.556 82.601,48.567 6.655,3.924 12.776,7.393 13.602,7.71 l 1.501,0.576 1.741,-2.657 1.741,-2.657 -0.843,-0.723 c -0.464,-0.398 -21.093,-12.57 -45.843,-27.05 -24.75,-14.479 -50.85,-29.788 -58,-34.02 -16.425,-9.721 -65.211,-38.338 -72.5,-42.528 -3.025,-1.739 -15.625,-9.133 -28,-16.431 -80.141,-47.267 -137.796,-81.018 -139.54,-81.688 l -1.621,-0.622 0.458,-1.751 c 0.457,-1.747 38.18,-65.688 39.732,-67.346 l 0.817,-0.873 2.827,1.979 c 1.555,1.088 14.25,8.635 28.212,16.77 l 25.385,14.791 1.841,-2.397 c 2.611,-3.399 3.981,-2.351 -26.111,-19.978 -15.125,-8.86 -27.823,-16.412 -28.219,-16.783 -0.395,-0.371 1.963,-5.165 5.242,-10.655 3.278,-5.489 5.964,-10.292 5.969,-10.671 0.006,-0.503 -28.242,-17.754 -35.205,-21.499 -0.392,-0.211 -3.493,4.382 -6.89,10.206 l -6.177,10.589 -1.386,-0.531 c -1.299,-0.499 -23.398,-13.415 -24.205,-14.148 -0.205,-0.185 0.822,-2.374 2.281,-4.864 l 2.654,-4.528 2.065,0.232 2.065,0.233 13.529,-22.933 13.53,-22.933 -1.01,-1.616 -1.009,-1.616 3.226,-5.451 c 1.774,-2.998 9.118,-15.354 16.321,-27.458 7.202,-12.104 13.366,-22.711 13.696,-23.572 l 0.6,-1.565 -2.7,-1.23 -2.701,-1.231 -1.199,1.303 c -0.659,0.716 -8.472,13.564 -17.361,28.552 -8.89,14.987 -16.49,27.248 -16.889,27.246 -0.4,-0.002 -2.302,-0.972 -4.227,-2.155 -3.796,-2.334 -72.516,-42.692 -88,-51.681 -5.225,-3.034 -9.648,-5.621 -9.829,-5.75 -0.18,-0.128 8.652,-15.236 19.627,-33.572 l 19.955,-33.338 -1.126,-1.178 c -0.62,-0.648 -15.688,-9.808 -33.486,-20.356 l -32.359,-19.177 -1.22,1.356 c -0.671,0.745 -9.465,15.305 -19.543,32.355 -10.077,17.05 -18.906,31.636 -19.62,32.414 l -1.299,1.414 -1.3,-1.071 c -0.715,-0.589 -5.125,-3.293 -9.8,-6.007 -10.425,-6.054 -43.393,-25.449 -43.783,-25.758 -0.155,-0.123 7.874,-13.897 17.842,-30.608 9.969,-16.711 18.57,-31.208 19.112,-32.216 l 0.987,-1.832 -1.829,-1.386 c -1.006,-0.763 -2.504,-1.38 -3.329,-1.372 l -1.5,0.015 -18.5,31.424 c -10.175,17.283 -18.964,31.437 -19.53,31.453 -0.567,0.017 -6.867,-3.4 -14,-7.593 -7.134,-4.193 -21.97,-12.9 -32.97,-19.35 -11,-6.45 -28.775,-16.893 -39.5,-23.206 -10.725,-6.313 -38.175,-22.414 -61,-35.779 -22.825,-13.364 -44.731,-26.238 -48.68,-28.607 l -7.181,-4.307 -0.936,1.186 m 174.698,182.44 c -32.071,53.795 -42.932,72.164 -43.422,73.44 l -0.565,1.474 27.65,16.225 c 15.208,8.924 27.822,16.054 28.032,15.844 0.383,-0.383 21.769,-36.151 41.061,-68.674 5.689,-9.59 10.343,-17.756 10.343,-18.146 0,-0.609 -54.132,-32.924 -55.135,-32.913 -0.201,0.002 -3.785,5.74 -7.964,12.75 m 128.606,64.825 c -1.476,2.518 -2.531,4.695 -2.345,4.838 0.635,0.488 18.548,11.043 69.338,40.855 16.5,9.685 30.714,17.881 31.588,18.213 l 1.587,0.604 2.663,-4.023 c 1.464,-2.213 2.652,-4.37 2.639,-4.795 -0.012,-0.424 -18.07,-11.346 -40.129,-24.271 -22.058,-12.925 -44.885,-26.309 -50.727,-29.741 -12.68,-7.451 -11.324,-7.295 -14.614,-1.68 m -258.95,9.671 c -2.403,4.166 -81.201,136.525 -193.037,324.25 -14.417,24.2 -28.522,47.934 -31.343,52.742 l -5.131,8.742 2.227,1.376 c 14.65,9.049 29.992,17.718 30.851,17.432 0.995,-0.332 32.305,-52.604 164.893,-275.292 7.532,-12.65 25.719,-43.178 40.415,-67.841 14.695,-24.663 26.573,-44.985 26.394,-45.162 C 580.277,619.957 548.142,601 547.775,601 c -0.189,0 -1.187,1.462 -2.218,3.25 m 578.958,-0.28 -1.536,2.97 2.261,1.424 c 1.243,0.784 17.785,10.534 36.76,21.668 18.975,11.134 40.8,23.949 48.5,28.478 18.364,10.802 130.356,76.514 151.444,88.861 18.722,10.962 17.289,10.448 19.54,7.013 l 1.714,-2.615 -1.349,-1.248 c -0.742,-0.687 -16.199,-9.938 -34.349,-20.559 -29.112,-17.035 -114.538,-67.154 -146.5,-85.951 -83.827,-49.299 -74.281,-44.302 -76.485,-40.041 M 886.5,703.701 c -11,18.509 -20.094,33.91 -20.209,34.226 -0.383,1.047 24.996,15.187 25.796,14.372 1.295,-1.316 39.913,-66.565 39.913,-67.435 0,-0.884 -23.23,-14.879 -24.63,-14.839 -0.479,0.013 -9.87,15.168 -20.87,33.676 m 321.981,72.987 c -4.816,8.147 -11.148,18.834 -14.072,23.75 l -5.317,8.938 1.704,1.171 c 1.393,0.957 51.381,30.386 85.704,50.456 4.4,2.573 25.08,14.702 45.955,26.953 l 37.954,22.276 1.292,-0.866 c 0.711,-0.476 7.345,-11.191 14.743,-23.81 l 13.45,-22.944 -6.197,-3.656 c -3.408,-2.011 -36.347,-21.341 -73.197,-42.956 -36.85,-21.615 -72.202,-42.364 -78.56,-46.109 -6.358,-3.744 -12.268,-7.079 -13.132,-7.411 l -1.573,-0.604 -8.754,14.812 m -450.806,24.091 c -3.5,5.896 -13.341,22.421 -21.868,36.721 -8.527,14.3 -27.56,46.25 -42.295,71 -14.735,24.75 -40.614,68.175 -57.509,96.5 -16.894,28.325 -42.775,71.75 -57.512,96.5 -33.019,55.452 -69.554,116.787 -110.199,185 -17.041,28.6 -42.367,71.125 -56.28,94.5 -49.858,83.767 -78.514,131.877 -92.278,154.92 l -13.989,23.421 1.878,1.398 c 1.032,0.769 4.727,3.002 8.209,4.962 l 6.332,3.563 1.255,-1.382 c 0.689,-0.76 4.406,-6.782 8.258,-13.382 7.733,-13.248 53.129,-89.496 142.293,-239 10.825,-18.15 27.021,-45.375 35.991,-60.5 8.971,-15.125 20.241,-34.025 25.045,-42 4.805,-7.975 13.805,-23.05 20,-33.5 6.195,-10.45 18.112,-30.475 26.481,-44.5 8.369,-14.025 27.276,-45.75 42.015,-70.5 14.74,-24.75 40.615,-68.175 57.5,-96.5 16.885,-28.325 42.087,-70.625 56.005,-94 13.917,-23.375 29.5,-49.461 34.629,-57.969 5.129,-8.508 8.997,-15.785 8.595,-16.171 -0.402,-0.386 -4.21,-2.749 -8.461,-5.252 l -7.73,-4.551 -6.365,10.722 M 367.207,1033.25 c -1.075,1.787 -13.329,22.375 -27.231,45.75 -28.436,47.814 -41.129,69.135 -79.182,133 -14.583,24.475 -39.919,67 -56.302,94.5 -16.384,27.5 -42.256,70.925 -57.495,96.5 -15.239,25.575 -37.754,63.375 -50.034,84 -12.279,20.625 -28.319,47.553 -35.644,59.839 -14.55,24.405 -14.507,24.299 -10.667,26.048 3.333,1.519 0.491,5.6 26.042,-37.387 41.073,-69.101 72.558,-121.978 76.813,-129 2.333,-3.85 9.985,-16.675 17.004,-28.5 7.019,-11.825 20.41,-34.325 29.757,-50 9.347,-15.675 21.816,-36.6 27.709,-46.5 5.893,-9.9 17.691,-29.7 26.218,-44 8.526,-14.3 26.889,-45.125 40.805,-68.5 24.461,-41.087 48.631,-81.626 63.498,-106.5 3.944,-6.6 9.468,-15.904 12.275,-20.676 l 5.103,-8.675 -2.403,-1.575 c -3.357,-2.2 -4.044,-2.016 -6.266,1.676 M 963,1173.5 l 9,9.5 -9,-9.5"
     stroke="none"
     fill="#0657a8"
     fill-rule="evenodd"
     id="path1"
     sodipodi:nodetypes="cccccccscssccccccccscccccsscccccsccccccccccsscccsccscssccsscccccsscsccccccccccccscsccccccscsccscccccsccscscscccscsscccccscccccscscccscsccccsccscccccccscccccsccssscsscccscscsccccssccccccccccsscccccssscccccccscsccsccccsccsccccccccsscccsccscccssccccsscccsccccccccccccccscccscsccccccccccccscscccccccccsscccccccsscscccssccccccccsccccsccsccccscsscccsccccscccccssccccccscccccssccccccccccccccsscscsscccccscscccssssscccscscccc" />
  <path
     d="m 951.68,49.25 c -16.16,27.088 -41.426,69.5 -56.147,94.25 -14.722,24.75 -28.675,48.15 -31.009,52 -2.333,3.85 -15.616,26.125 -29.519,49.5 -13.902,23.375 -29.266,49.164 -34.141,57.308 -4.875,8.145 -8.864,15.07 -8.864,15.39 0,0.901 3.358,3.235 4.706,3.27 C 797.924,321 819.922,284.453 921.28,114 c 7.685,-12.925 16.552,-27.775 19.704,-33 3.152,-5.225 14.402,-24.125 25,-42 C 976.582,21.125 986.133,5.038 987.208,3.25 L 989.163,0 h -4.05 -4.051 L 951.68,49.25 m 99.331,-25 c -7.947,13.337 -18.474,31 -23.393,39.25 -4.92,8.25 -13.08,21.975 -18.134,30.5 -5.053,8.525 -17.601,29.616 -27.884,46.869 -10.282,17.253 -18.561,31.478 -18.397,31.61 0.163,0.133 13.347,8.012 29.297,17.508 15.95,9.497 31.155,18.618 33.788,20.269 2.633,1.651 4.94,2.831 5.126,2.623 0.185,-0.209 11.574,-19.279 25.308,-42.379 13.734,-23.1 41.979,-70.575 62.767,-105.5 20.789,-34.925 37.984,-63.837 38.213,-64.25 C 1157.931,0.338 1137.27,0 1111.788,0 h -46.329 l -14.448,24.25 m 178.386,93.5 c -61.547,103.258 -83.662,140.384 -102.903,172.75 -11.443,19.25 -24.72,41.525 -29.504,49.5 -9.094,15.16 -53.838,90.235 -79.854,133.988 l -15.156,25.488 2.26,1.738 c 3.777,2.905 -0.647,9.472 42.25,-62.714 11.439,-19.25 23.362,-39.275 26.494,-44.5 10.432,-17.403 52.276,-87.625 81.039,-136 10.628,-17.875 38.62,-64.88 62.203,-104.456 l 42.879,-71.956 -2.303,-1.772 c -1.266,-0.974 -2.619,-1.782 -3.007,-1.794 -0.388,-0.012 -11.367,17.865 -24.398,39.728 M 46.39,164.528 l -1.699,2.592 1.405,1.278 c 0.772,0.703 7.929,5.106 15.904,9.785 48.715,28.578 144.623,84.865 162,95.076 27.991,16.448 58.048,34.092 106,62.224 22.275,13.068 63.9,37.513 92.5,54.322 78.712,46.26 90.632,53.195 91.438,53.195 1.191,0 3.235,-5.233 2.36,-6.04 -0.869,-0.801 -27.706,-16.602 -146.798,-86.428 -42.9,-25.154 -81.6,-47.87 -86,-50.482 C 279.1,297.439 253.225,282.237 226,266.268 163.226,229.448 49.723,162.884 48.794,162.346 c -0.388,-0.226 -1.47,0.757 -2.404,2.182 m 444.41,74.011 -1.246,2.734 1.973,1.451 c 1.085,0.797 31.898,19 68.473,40.451 120.612,70.737 177.279,103.991 194,113.847 17.859,10.527 79.584,46.729 95,55.719 5.225,3.046 11.525,6.794 14,8.327 2.475,1.533 7.2,4.327 10.5,6.208 9.108,5.191 57.953,33.851 58.333,34.227 0.183,0.181 -4.654,8.648 -10.75,18.814 -13.215,22.04 -12.984,19.034 -1.961,25.535 l 9.074,5.352 0.819,-0.852 c 0.45,-0.469 5.732,-9.056 11.738,-19.083 l 10.919,-18.23 10.414,6.109 c 5.728,3.36 17.839,10.5 26.914,15.867 37.464,22.156 35.476,21.228 37.232,17.375 l 1.189,-2.609 -1.56,-1.141 c -0.858,-0.627 -16.941,-10.14 -35.74,-21.14 l -34.18,-20 0.387,-1.563 c 0.213,-0.859 11.772,-20.659 25.688,-44 13.915,-23.34 31.466,-52.787 39.002,-65.437 7.535,-12.65 22.286,-37.4 32.78,-55 10.493,-17.6 19.358,-32.732 19.7,-33.627 l 0.622,-1.628 -8.81,-5.26 c -4.846,-2.894 -9.078,-5.407 -9.405,-5.586 -0.63,-0.345 -3.359,4.127 -33.937,55.601 -10.618,17.875 -23.884,40.15 -29.479,49.5 -5.595,9.35 -20.2,33.875 -32.455,54.5 -12.256,20.625 -22.857,38.114 -23.559,38.865 l -1.276,1.365 -41.35,-24.267 C 871.107,457.617 835.625,436.796 815,424.695 c -20.625,-12.102 -44.925,-26.374 -54,-31.717 -9.075,-5.343 -24.375,-14.334 -34,-19.981 -9.625,-5.646 -22.675,-13.303 -29,-17.015 -6.325,-3.712 -36.25,-21.264 -66.5,-39.005 -30.25,-17.741 -73.233,-42.967 -95.517,-56.058 -22.285,-13.092 -41.287,-24.098 -42.227,-24.459 l -1.71,-0.656 -1.246,2.735 m 10.403,108.775 c -0.773,0.98 -11.834,19.802 -24.578,41.824 l -2.684,4.638 4.78,2.757 c 8.365,4.826 68.066,39.803 120.779,70.762 28.05,16.473 56.738,33.316 63.752,37.427 7.014,4.112 12.995,7.869 13.292,8.349 0.622,1.007 -49.899,86.214 -51.419,86.721 -0.555,0.185 -24.548,-13.493 -53.317,-30.396 -53.007,-31.142 -99.407,-58.39 -143.692,-84.382 l -24.383,-14.311 -1.844,2.399 c -2.605,3.387 -2.698,3.256 5.861,8.193 4.262,2.459 32.95,19.279 63.75,37.377 30.8,18.098 77.038,45.253 102.75,60.346 25.712,15.092 46.75,27.811 46.75,28.264 0,0.749 -25.861,44.419 -65.566,110.718 l -15.272,25.5 2.03,1.75 c 3.393,2.926 3.991,2.306 14.004,-14.5 5.325,-8.937 19.193,-32.225 30.818,-51.75 11.625,-19.525 25.49,-42.809 30.811,-51.743 l 9.675,-16.243 1.47,0.546 c 3.624,1.346 53.272,30.906 53.675,31.958 0.249,0.648 -3.551,7.884 -8.443,16.08 -4.893,8.196 -20.958,35.152 -35.7,59.902 -14.743,24.75 -33.648,56.475 -42.012,70.5 -8.363,14.025 -26.585,44.625 -40.493,68 -13.907,23.375 -32.803,55.1 -41.99,70.5 -9.188,15.4 -28.085,47.125 -41.993,70.5 -13.909,23.375 -32.815,55.1 -42.014,70.5 -9.199,15.4 -28.108,47.125 -42.02,70.5 -59.721,100.342 -82.203,138.088 -97.253,163.281 -8.799,14.73 -15.825,26.928 -15.613,27.108 1.043,0.883 64.779,38.633 66.053,39.122 l 1.474,0.565 4.324,-7.288 c 2.378,-4.008 18.147,-30.463 35.04,-58.788 16.894,-28.325 51.091,-85.7 75.994,-127.5 24.902,-41.8 51.446,-86.35 58.985,-99 7.539,-12.65 25.092,-42.125 39.007,-65.5 13.915,-23.375 32.822,-55.1 42.016,-70.5 9.194,-15.4 35.064,-58.825 57.488,-96.5 22.425,-37.675 48.294,-81.1 57.488,-96.5 9.194,-15.4 31.694,-53.2 50.001,-84 18.307,-30.8 33.848,-56.607 34.536,-57.349 l 1.25,-1.35 49.865,29.231 c 27.426,16.077 50.39,29.646 51.032,30.153 l 1.166,0.921 -9.722,16.197 c -5.347,8.908 -14.422,24.173 -20.166,33.921 -5.745,9.748 -10.803,17.736 -11.24,17.75 -0.437,0.014 -12.322,-6.726 -26.412,-14.979 -14.089,-8.253 -25.68,-14.89 -25.757,-14.75 -0.078,0.14 -0.908,1.48 -1.844,2.978 l -1.703,2.724 2.255,1.415 c 3.536,2.219 41.156,24.269 44.373,26.007 1.586,0.857 3.508,1.977 4.273,2.49 l 1.389,0.932 -19.285,32.354 c -10.606,17.795 -28.144,47.205 -38.973,65.355 -10.828,18.15 -29.042,48.75 -40.474,68 -11.433,19.25 -22.693,38.15 -25.023,42 -5.604,9.259 -30.252,50.637 -55.994,94 -11.428,19.25 -23.365,39.275 -26.528,44.5 -3.162,5.225 -17.126,28.625 -31.031,52 -13.904,23.375 -32.12,53.975 -40.478,68 -8.359,14.025 -26.569,44.625 -40.468,68 -13.899,23.375 -27.857,46.775 -31.018,52 -3.161,5.225 -17.118,28.625 -31.016,52 -13.899,23.375 -37.067,62.3 -51.487,86.5 -14.419,24.2 -27.294,45.934 -28.61,48.298 l -2.394,4.297 1.941,1.453 c 3.288,2.46 3.991,1.814 11.224,-10.298 3.859,-6.462 18.274,-30.65 32.033,-53.75 13.759,-23.1 46.069,-77.325 71.801,-120.5 25.732,-43.175 58.04,-97.4 71.795,-120.5 13.756,-23.1 38.827,-65.175 55.712,-93.5 56.055,-94.029 86.327,-144.863 124.463,-209 20.767,-34.925 40.349,-67.775 43.517,-73 3.167,-5.225 17.1,-28.548 30.962,-51.828 l 25.203,-42.328 1.674,0.641 c 2.296,0.88 24.175,13.72 24.175,14.188 0,0.207 -1.743,3.177 -3.874,6.602 -2.131,3.424 -15.124,25.125 -28.874,48.225 -13.75,23.1 -46.583,78.225 -72.963,122.5 -26.379,44.275 -56.661,95.125 -67.292,113 -10.632,17.875 -23.914,40.15 -29.516,49.5 -8.991,15.006 -35.769,59.981 -64.305,108 -5.229,8.8 -17.696,29.725 -27.703,46.5 -53.197,89.171 -61.54,103.258 -61.269,103.442 3.964,2.689 36.015,21.644 36.188,21.402 0.136,-0.189 1.155,-1.919 2.265,-3.844 1.11,-1.925 14.758,-24.875 30.329,-51 15.57,-26.125 41.581,-69.775 57.8,-97 16.22,-27.225 38.358,-64.35 49.196,-82.5 10.838,-18.15 29.74,-49.875 42.004,-70.5 12.263,-20.625 29.82,-50.1 39.015,-65.5 18.614,-31.176 58.873,-98.761 99.477,-167 31.652,-53.193 35.663,-59.91 35.996,-60.28 0.139,-0.154 14.152,7.887 31.139,17.87 16.988,9.982 34.937,20.526 39.887,23.43 4.95,2.905 38.7,22.708 75,44.008 36.3,21.299 82.875,48.623 103.5,60.719 34.614,20.299 50.357,29.556 82.601,48.567 6.655,3.924 12.776,7.393 13.602,7.71 l 1.501,0.576 1.741,-2.657 1.741,-2.657 -0.843,-0.723 c -0.464,-0.398 -21.093,-12.57 -45.843,-27.05 -24.75,-14.479 -50.85,-29.788 -58,-34.02 -16.425,-9.721 -65.211,-38.338 -72.5,-42.528 -3.025,-1.739 -15.625,-9.133 -28,-16.431 -80.141,-47.267 -137.796,-81.018 -139.54,-81.688 l -1.621,-0.622 0.458,-1.751 c 0.457,-1.747 38.18,-65.688 39.732,-67.346 l 0.817,-0.873 2.827,1.979 c 1.555,1.088 14.25,8.635 28.212,16.77 l 25.385,14.791 1.841,-2.397 c 2.611,-3.399 3.981,-2.351 -26.111,-19.978 -15.125,-8.86 -27.823,-16.412 -28.219,-16.783 -0.395,-0.371 1.963,-5.165 5.242,-10.655 3.278,-5.489 5.964,-10.292 5.969,-10.671 0.006,-0.503 -28.242,-17.754 -35.205,-21.499 -0.392,-0.211 -3.493,4.382 -6.89,10.206 l -6.177,10.589 -1.386,-0.531 c -1.299,-0.499 -23.398,-13.415 -24.205,-14.148 -0.205,-0.185 0.822,-2.374 2.281,-4.864 l 2.654,-4.528 2.065,0.232 2.065,0.233 13.529,-22.933 13.53,-22.933 -1.01,-1.616 -1.009,-1.616 3.226,-5.451 c 1.774,-2.998 9.118,-15.354 16.321,-27.458 7.202,-12.104 13.366,-22.711 13.696,-23.572 l 0.6,-1.565 -2.7,-1.23 -2.701,-1.231 -1.199,1.303 c -0.659,0.716 -8.472,13.564 -17.361,28.552 -8.89,14.987 -16.49,27.248 -16.889,27.246 -0.4,-0.002 -2.302,-0.972 -4.227,-2.155 -3.796,-2.334 -72.516,-42.692 -88,-51.681 -5.225,-3.034 -9.648,-5.621 -9.829,-5.75 -0.18,-0.128 8.652,-15.236 19.627,-33.572 l 19.955,-33.338 -1.126,-1.178 c -0.62,-0.648 -15.688,-9.808 -33.486,-20.356 l -32.359,-19.177 -1.22,1.356 c -0.671,0.745 -9.465,15.305 -19.543,32.355 -10.077,17.05 -18.906,31.636 -19.62,32.414 l -1.299,1.414 -1.3,-1.071 c -0.715,-0.589 -5.125,-3.293 -9.8,-6.007 -10.425,-6.054 -43.393,-25.449 -43.783,-25.758 -0.155,-0.123 7.874,-13.897 17.842,-30.608 9.969,-16.711 18.57,-31.208 19.112,-32.216 l 0.987,-1.832 -1.829,-1.386 c -1.006,-0.763 -2.504,-1.38 -3.329,-1.372 l -1.5,0.015 -18.5,31.424 c -10.175,17.283 -18.964,31.437 -19.53,31.453 -0.567,0.017 -6.867,-3.4 -14,-7.593 -7.134,-4.193 -21.97,-12.9 -32.97,-19.35 -11,-6.45 -28.775,-16.893 -39.5,-23.206 -10.725,-6.313 -38.175,-22.414 -61,-35.779 -22.825,-13.364 -44.731,-26.238 -48.68,-28.607 l -7.181,-4.307 -0.936,1.186 m 174.698,182.44 c -32.071,53.795 -42.932,72.164 -43.422,73.44 l -0.565,1.474 27.65,16.225 c 15.208,8.924 27.822,16.054 28.032,15.844 0.383,-0.383 21.769,-36.151 41.061,-68.674 5.689,-9.59 10.343,-17.756 10.343,-18.146 0,-0.609 -54.132,-32.924 -55.135,-32.913 -0.201,0.002 -3.785,5.74 -7.964,12.75 m 128.606,64.825 c -1.476,2.518 -2.531,4.695 -2.345,4.838 0.635,0.488 18.548,11.043 69.338,40.855 16.5,9.685 30.714,17.881 31.588,18.213 l 1.587,0.604 2.663,-4.023 c 1.464,-2.213 2.652,-4.37 2.639,-4.795 -0.012,-0.424 -18.07,-11.346 -40.129,-24.271 -22.058,-12.925 -44.885,-26.309 -50.727,-29.741 -12.68,-7.451 -11.324,-7.295 -14.614,-1.68 m -258.95,9.671 c -2.403,4.166 -81.201,136.525 -193.037,324.25 -14.417,24.2 -28.522,47.934 -31.343,52.742 l -5.131,8.742 2.227,1.376 c 14.65,9.049 29.992,17.718 30.851,17.432 0.995,-0.332 32.305,-52.604 164.893,-275.292 7.532,-12.65 25.719,-43.178 40.415,-67.841 14.695,-24.663 26.573,-44.985 26.394,-45.162 C 580.277,619.957 548.142,601 547.775,601 c -0.189,0 -1.187,1.462 -2.218,3.25 m 578.958,-0.28 -1.536,2.97 2.261,1.424 c 1.243,0.784 17.785,10.534 36.76,21.668 18.975,11.134 40.8,23.949 48.5,28.478 18.364,10.802 130.356,76.514 151.444,88.861 18.722,10.962 17.289,10.448 19.54,7.013 l 1.714,-2.615 -1.349,-1.248 c -0.742,-0.687 -16.199,-9.938 -34.349,-20.559 -29.112,-17.035 -114.538,-67.154 -146.5,-85.951 -83.827,-49.299 -74.281,-44.302 -76.485,-40.041 M 886.5,703.701 c -11,18.509 -20.094,33.91 -20.209,34.226 -0.383,1.047 24.996,15.187 25.796,14.372 1.295,-1.316 39.913,-66.565 39.913,-67.435 0,-0.884 -23.23,-14.879 -24.63,-14.839 -0.479,0.013 -9.87,15.168 -20.87,33.676 m 321.981,72.987 c -4.816,8.147 -11.148,18.834 -14.072,23.75 l -5.317,8.938 1.704,1.171 c 1.393,0.957 51.381,30.386 85.704,50.456 4.4,2.573 25.08,14.702 45.955,26.953 l 37.954,22.276 1.292,-0.866 c 0.711,-0.476 7.345,-11.191 14.743,-23.81 l 13.45,-22.944 -6.197,-3.656 c -3.408,-2.011 -36.347,-21.341 -73.197,-42.956 -36.85,-21.615 -72.202,-42.364 -78.56,-46.109 -6.358,-3.744 -12.268,-7.079 -13.132,-7.411 l -1.573,-0.604 -8.754,14.812 m -450.806,24.091 c -3.5,5.896 -13.341,22.421 -21.868,36.721 -8.527,14.3 -27.56,46.25 -42.295,71 -14.735,24.75 -40.614,68.175 -57.509,96.5 -16.894,28.325 -42.775,71.75 -57.512,96.5 -33.019,55.452 -69.554,116.787 -110.199,185 -17.041,28.6 -42.367,71.125 -56.28,94.5 -49.858,83.767 -78.514,131.877 -92.278,154.92 l -13.989,23.421 1.878,1.398 c 1.032,0.769 4.727,3.002 8.209,4.962 l 6.332,3.563 1.255,-1.382 c 0.689,-0.76 4.406,-6.782 8.258,-13.382 7.733,-13.248 53.129,-89.496 142.293,-239 10.825,-18.15 27.021,-45.375 35.991,-60.5 8.971,-15.125 20.241,-34.025 25.045,-42 4.805,-7.975 13.805,-23.05 20,-33.5 6.195,-10.45 18.112,-30.475 26.481,-44.5 8.369,-14.025 27.276,-45.75 42.015,-70.5 14.74,-24.75 40.615,-68.175 57.5,-96.5 16.885,-28.325 42.087,-70.625 56.005,-94 13.917,-23.375 29.5,-49.461 34.629,-57.969 5.129,-8.508 8.997,-15.785 8.595,-16.171 -0.402,-0.386 -4.21,-2.749 -8.461,-5.252 l -7.73,-4.551 -6.365,10.722 M 367.207,1033.25 c -1.075,1.787 -13.329,22.375 -27.231,45.75 -28.436,47.814 -41.129,69.135 -79.182,133 -14.583,24.475 -39.919,67 -56.302,94.5 -16.384,27.5 -42.256,70.925 -57.495,96.5 -15.239,25.575 -37.754,63.375 -50.034,84 -12.279,20.625 -28.319,47.553 -35.644,59.839 -14.55,24.405 -14.507,24.299 -10.667,26.048 3.333,1.519 0.491,5.6 26.042,-37.387 41.073,-69.101 72.558,-121.978 76.813,-129 2.333,-3.85 9.985,-16.675 17.004,-28.5 7.019,-11.825 20.41,-34.325 29.757,-50 9.347,-15.675 21.816,-36.6 27.709,-46.5 5.893,-9.9 17.691,-29.7 26.218,-44 8.526,-14.3 26.889,-45.125 40.805,-68.5 24.461,-41.087 48.631,-81.626 63.498,-106.5 3.944,-6.6 9.468,-15.904 12.275,-20.676 l 5.103,-8.675 -2.403,-1.575 c -3.357,-2.2 -4.044,-2.016 -6.266,1.676 m 599.97089,243.8688 v 9.5 h 9 9 v -9.5 -9.5 h -9 -9 v 9.5 M 353.403,1664.769 c -4.453,7.552 -23.466,39.516 -42.25,71.032 -18.784,31.515 -34.153,57.503 -34.153,57.75 0,0.247 9.794,0.449 21.764,0.449 h 21.764 l 15.68,-26.25 c 43.568,-72.941 57.792,-96.956 57.791,-97.573 -0.001,-0.77 -30.478,-19.187 -31.702,-19.158 -0.438,0.011 -4.441,6.198 -8.894,13.75"
     stroke="none"
     fill="#f7f9fb"
     fill-rule="evenodd"
     id="path2"
     sodipodi:nodetypes="cccccsccsscccccccccccscsccsccccsccscssccsscccccsscsccccccccccccscsccccccscsccscccccsccscscscccscsscccccscccccscscccscsccccsccscccccccscccccsccssscsscccscscsccccssccccccccccsscccccssscccccccscsccsccccsccsccccccccsscccsccscccssccccsscccsccccccccccccccscccscsccccccccccccscscccccccccsscccccccsscscccssccccccccsccccsccsccccscsscccsccccscccccssccccccscccccssccccccccccccccsscscsscccccscscccssssscccscsccccccccccccssccscc" />
</svg>
